<svg width="220" height="32" viewBox="0 0 220 32" fill="none" xmlns="http://www.w3.org/2000/svg">
<g clip-path="url(#clip0_1_6)">
<g clip-path="url(#clip1_1_6)">
<path d="M2.89844 29.8324V25.7222H10.605C12.0541 25.7222 13.2002 25.3665 14.0433 24.6551C14.8864 23.9437 15.308 22.9821 15.308 21.7701C15.308 20.4527 14.8337 19.4252 13.8852 18.6875C12.9631 17.9234 11.6589 17.5545 9.97269 17.5809H2.89844V13.9449L7.68048 14.024C10.1835 14.024 12.3571 14.3138 14.2014 14.8934C16.0457 15.4467 17.4685 16.3162 18.4697 17.5018C19.4709 18.6875 19.9715 20.2156 19.9715 22.0863C19.9715 23.7198 19.6026 25.1162 18.8649 26.2755C18.1271 27.4348 17.0864 28.3174 15.7427 28.9234C14.399 29.5294 12.805 29.8324 10.9607 29.8324H2.89844ZM0.645752 29.8324V2.16769H5.15114V29.8324H0.645752ZM2.77988 17.7785V13.7869H10.1703C11.4877 13.7869 12.5152 13.4443 13.2529 12.7593C14.017 12.0479 14.399 11.0731 14.399 9.83476C14.399 8.57009 13.9643 7.59524 13.0949 6.91021C12.2517 6.22518 11.0661 5.89584 9.53798 5.92218H2.77988V2.20721L9.77509 2.12817C11.6721 2.12817 13.3056 2.43117 14.6756 3.03715C16.0721 3.6168 17.1523 4.48626 17.9164 5.64554C18.6804 6.77847 19.0625 8.20123 19.0625 9.9138C19.0625 11.3629 18.6146 12.6671 17.7188 13.8264C16.8493 14.9593 15.5978 15.8551 13.9643 16.5138C12.3571 17.1725 10.4601 17.5018 8.27329 17.5018L2.77988 17.7785Z" fill="black"/>
<path d="M32.828 30.3066C30.9046 30.3066 29.192 29.8719 27.6902 29.0024C26.2148 28.1066 25.0423 26.8815 24.1729 25.327C23.3298 23.7725 22.9082 21.9809 22.9082 19.9521C22.9082 17.9234 23.3429 16.1318 24.2124 14.5773C25.0819 13.0228 26.2675 11.8108 27.7693 10.9414C29.2974 10.0456 31.0363 9.59766 32.986 9.59766C34.7513 9.59766 36.3322 10.0587 37.7286 10.9809C39.1513 11.8767 40.2843 13.1809 41.1274 14.8935C41.9705 16.606 42.392 18.648 42.392 21.0192H37.9262C37.9262 19.3066 37.7154 17.8971 37.2938 16.7905C36.8986 15.6839 36.319 14.8671 35.5549 14.3402C34.8172 13.7869 33.9082 13.5102 32.828 13.5102C31.695 13.5102 30.7202 13.7605 29.9034 14.2611C29.0866 14.7617 28.4675 15.4995 28.0459 16.4743C27.6244 17.4228 27.4136 18.6216 27.4136 20.0707C27.4136 21.3617 27.6639 22.4683 28.1645 23.3905C28.6914 24.3126 29.3896 25.024 30.2591 25.5246C31.1549 25.9989 32.1429 26.236 33.2232 26.236C34.4088 26.236 35.3837 25.9725 36.1477 25.4456C36.9118 24.8923 37.5046 24.1941 37.9262 23.351L41.9968 25.0899C41.4435 26.1438 40.7322 27.0659 39.8627 27.8563C39.0196 28.6468 38.0052 29.2527 36.8196 29.6743C35.6603 30.0959 34.3298 30.3066 32.828 30.3066ZM25.8328 21.0192V17.5018H40.0603V21.0192H25.8328Z" fill="black"/>
<path d="M53.6467 30.3067C51.5653 30.3067 49.9713 29.793 48.8647 28.7654C47.7845 27.7115 47.2444 26.2097 47.2444 24.26V3.90674H51.6312V23.4301C51.6312 24.3522 51.842 25.0505 52.2635 25.5247C52.7114 25.999 53.3569 26.2361 54.2 26.2361C54.4635 26.2361 54.7533 26.1834 55.0695 26.078C55.3857 25.9726 55.7414 25.775 56.1366 25.4852L57.7569 28.8445C57.0719 29.3187 56.3869 29.6744 55.7018 29.9115C55.0168 30.175 54.3318 30.3067 53.6467 30.3067ZM43.9641 13.866V10.072H56.9665V13.866H43.9641Z" fill="black"/>
<path d="M69.1619 30.3067C67.0804 30.3067 65.4864 29.793 64.3798 28.7654C63.2996 27.7115 62.7595 26.2097 62.7595 24.26V3.90674H67.1463V23.4301C67.1463 24.3522 67.3571 25.0505 67.7786 25.5247C68.2266 25.999 68.8721 26.2361 69.7152 26.2361C69.9787 26.2361 70.2685 26.1834 70.5846 26.078C70.9008 25.9726 71.2565 25.775 71.6517 25.4852L73.2721 28.8445C72.587 29.3187 71.902 29.6744 71.217 29.9115C70.5319 30.175 69.8469 30.3067 69.1619 30.3067ZM59.4792 13.866V10.072H72.4816V13.866H59.4792Z" fill="black"/>
<path d="M85.3939 30.3066C83.4705 30.3066 81.758 29.8719 80.2562 29.0024C78.7807 28.1066 77.6083 26.8815 76.7388 25.327C75.8957 23.7725 75.4741 21.9809 75.4741 19.9521C75.4741 17.9234 75.9089 16.1318 76.7783 14.5773C77.6478 13.0228 78.8334 11.8108 80.3352 10.9414C81.8633 10.0456 83.6023 9.59766 85.552 9.59766C87.3172 9.59766 88.8981 10.0587 90.2945 10.9809C91.7172 11.8767 92.8502 13.1809 93.6933 14.8935C94.5364 16.606 94.958 18.648 94.958 21.0192H90.4921C90.4921 19.3066 90.2813 17.8971 89.8598 16.7905C89.4645 15.6839 88.8849 14.8671 88.1208 14.3402C87.3831 13.7869 86.4741 13.5102 85.3939 13.5102C84.261 13.5102 83.2861 13.7605 82.4693 14.2611C81.6526 14.7617 81.0334 15.4995 80.6118 16.4743C80.1903 17.4228 79.9795 18.6216 79.9795 20.0707C79.9795 21.3617 80.2298 22.4683 80.7304 23.3905C81.2574 24.3126 81.9556 25.024 82.825 25.5246C83.7208 25.9989 84.7088 26.236 85.7891 26.236C86.9747 26.236 87.9496 25.9725 88.7136 25.4456C89.4777 24.8923 90.0705 24.1941 90.4921 23.351L94.5627 25.0899C94.0095 26.1438 93.2981 27.0659 92.4286 27.8563C91.5855 28.6468 90.5711 29.2527 89.3855 29.6743C88.2262 30.0959 86.8957 30.3066 85.3939 30.3066ZM78.3987 21.0192V17.5018H92.6262V21.0192H78.3987Z" fill="black"/>
<path d="M101.273 19.3199C101.273 17.1857 101.681 15.4336 102.498 14.0636C103.315 12.6935 104.369 11.6791 105.66 11.0205C106.977 10.3354 108.347 9.99292 109.77 9.99292V14.2217C108.558 14.2217 107.412 14.3929 106.331 14.7354C105.277 15.0516 104.421 15.5785 103.763 16.3163C103.104 17.054 102.774 18.0288 102.774 19.2408L101.273 19.3199ZM98.3481 29.8324V10.072H102.774V29.8324H98.3481Z" fill="black"/>
<path d="M119.156 29.8324V4.45994H123.74V29.8324H119.156ZM110.659 6.35695V2.16772H132.237V6.35695H110.659Z" fill="#726240"/>
<path d="M144.639 29.8324L144.441 26.1174V19.6755C144.441 18.3318 144.296 17.212 144.006 16.3162C143.717 15.4204 143.256 14.7354 142.623 14.2611C142.017 13.7869 141.214 13.5498 140.212 13.5498C139.29 13.5498 138.473 13.7474 137.762 14.1426C137.051 14.5378 136.458 15.1438 135.984 15.9605L131.953 14.5378C132.4 13.6683 132.98 12.8515 133.691 12.0875C134.403 11.3234 135.299 10.7174 136.379 10.2695C137.485 9.82161 138.79 9.59766 140.291 9.59766C142.215 9.59766 143.809 9.95334 145.073 10.6647C146.365 11.3761 147.326 12.43 147.959 13.8264C148.591 15.2228 148.907 16.9486 148.907 19.0036L148.788 29.8324H144.639ZM139.027 30.3066C136.656 30.3066 134.811 29.7797 133.494 28.7258C132.203 27.6719 131.558 26.1833 131.558 24.2599C131.558 22.2048 132.242 20.6372 133.612 19.5569C135.009 18.4767 136.945 17.9366 139.422 17.9366H144.718V21.3354H140.845C139.079 21.3354 137.841 21.5857 137.13 22.0863C136.418 22.5605 136.063 23.2456 136.063 24.1414C136.063 24.9054 136.366 25.5114 136.972 25.9593C137.604 26.3809 138.474 26.5917 139.58 26.5917C140.555 26.5917 141.398 26.3677 142.109 25.9198C142.847 25.4456 143.414 24.8396 143.809 24.1018C144.23 23.3378 144.441 22.521 144.441 21.6515H146.062C146.062 24.339 145.482 26.4599 144.323 28.0144C143.19 29.5426 141.424 30.3066 139.027 30.3066Z" fill="#726240"/>
<path d="M153.39 29.8324V2.16772H157.816V29.8324H153.39Z" fill="#726240"/>
<path d="M171.543 30.3066C169.62 30.3066 167.907 29.8719 166.406 29.0024C164.93 28.1066 163.758 26.8815 162.888 25.327C162.045 23.7725 161.624 21.9809 161.624 19.9521C161.624 17.9234 162.058 16.1318 162.928 14.5773C163.797 13.0228 164.983 11.8108 166.485 10.9414C168.013 10.0456 169.752 9.59766 171.701 9.59766C173.467 9.59766 175.047 10.0587 176.444 10.9809C177.867 11.8767 179 13.1809 179.843 14.8935C180.686 16.606 181.107 18.648 181.107 21.0192H176.642C176.642 19.3066 176.431 17.8971 176.009 16.7905C175.614 15.6839 175.034 14.8671 174.27 14.3402C173.533 13.7869 172.624 13.5102 171.543 13.5102C170.41 13.5102 169.436 13.7605 168.619 14.2611C167.802 14.7617 167.183 15.4995 166.761 16.4743C166.34 17.4228 166.129 18.6216 166.129 20.0707C166.129 21.3617 166.379 22.4683 166.88 23.3905C167.407 24.3126 168.105 25.024 168.974 25.5246C169.87 25.9989 170.858 26.236 171.939 26.236C173.124 26.236 174.099 25.9725 174.863 25.4456C175.627 24.8923 176.22 24.1941 176.642 23.351L180.712 25.0899C180.159 26.1438 179.448 27.0659 178.578 27.8563C177.735 28.6468 176.721 29.2527 175.535 29.6743C174.376 30.0959 173.045 30.3066 171.543 30.3066ZM164.548 21.0192V17.5018H178.776V21.0192H164.548Z" fill="#726240"/>
<path d="M184.497 29.8324V10.0719H188.647L188.923 13.7078V29.8324H184.497ZM197.895 29.8324V19.715L202.321 18.5294V29.8324H197.895ZM197.895 19.715C197.895 18.1342 197.71 16.9222 197.341 16.0791C196.999 15.2096 196.498 14.6036 195.84 14.2611C195.207 13.9186 194.456 13.7474 193.587 13.7474C192.111 13.721 190.965 14.2084 190.149 15.2096C189.332 16.2108 188.923 17.6468 188.923 19.5174H187.264C187.264 17.436 187.567 15.6575 188.173 14.1821C188.778 12.6803 189.648 11.5474 190.781 10.7833C191.914 9.99287 193.258 9.59766 194.812 9.59766C197.21 9.59766 199.054 10.3354 200.345 11.8108C201.662 13.2599 202.321 15.4995 202.321 18.5294L197.895 19.715Z" fill="#726240"/>
<path d="M214.67 30.3067C212.588 30.3067 210.994 29.793 209.888 28.7654C208.808 27.7115 208.268 26.2097 208.268 24.26V3.90674H212.654V23.4301C212.654 24.3522 212.865 25.0505 213.287 25.5247C213.735 25.999 214.38 26.2361 215.223 26.2361C215.487 26.2361 215.777 26.1834 216.093 26.078C216.409 25.9726 216.765 25.775 217.16 25.4852L218.78 28.8445C218.095 29.3187 217.41 29.6744 216.725 29.9115C216.04 30.175 215.355 30.3067 214.67 30.3067ZM204.987 13.866V10.072H217.99V13.866H204.987Z" fill="#726240"/>
</g>
</g>
<defs>
<clipPath id="clip0_1_6">
<rect width="220" height="30.3" fill="white" transform="translate(0 0.850098)"/>
</clipPath>
<clipPath id="clip1_1_6">
<rect width="220" height="30.3" fill="white" transform="translate(0 0.850098)"/>
</clipPath>
</defs>
</svg>
